<svg width="852" height="561" viewBox="0 0 852 561" fill="none" xmlns="http://www.w3.org/2000/svg">
<rect width="852" height="561" fill="white"/>
<path d="M0 234V0H852V234C731.5 234 625.496 167 433 167C265.906 167 108.5 234 0 234Z" fill="url(#paint0_linear_303_1184)"/>
<path fill-rule="evenodd" clip-rule="evenodd" d="M138.317 399.201C137.6 398.477 136.609 398.027 135.521 398.027C134.432 398.027 133.443 398.477 132.725 399.201C132.006 399.925 131.561 400.923 131.561 402.022V428.006C131.561 429.104 132.006 430.102 132.725 430.826C133.443 431.551 134.432 432 135.521 432C136.609 432 137.6 431.551 138.317 430.826C139.035 430.102 139.481 429.104 139.481 428.006V402.022C139.481 400.923 139.035 399.925 138.317 399.201Z" fill="#50297B"/>
<path fill-rule="evenodd" clip-rule="evenodd" d="M101.276 398.958C100.558 398.234 99.5682 397.785 98.4795 397.785C97.3908 397.785 96.4008 398.234 95.683 398.958C94.9645 399.682 94.5195 400.682 94.5195 401.78V427.764C94.5195 428.861 94.9645 429.861 95.683 430.585C96.4008 431.309 97.3908 431.758 98.4795 431.758C99.5682 431.758 100.558 431.309 101.276 430.585C101.994 429.861 102.439 428.861 102.439 427.764V401.78C102.439 400.682 101.994 399.682 101.276 398.958Z" fill="#50297B"/>
<path fill-rule="evenodd" clip-rule="evenodd" d="M152.397 407.722C153.7 397.604 151.273 389.018 146.424 381.429C145.649 380.214 144.82 379.069 143.944 377.99C144.28 376.488 143.388 374.146 140.599 371.859C127.06 361.717 113.978 360.214 100.655 367.707C99.0301 368.621 92.7104 371.982 92.5198 375.343C92.1406 375.713 91.7663 376.09 91.3995 376.48C84.205 384.131 81.1658 394.689 81.6162 407.212C82.0529 406.412 82.5554 405.67 83.1149 404.995C84.0438 403.875 85.1298 402.942 86.3303 402.247C86.3481 391.966 90.0229 384.052 95.5569 378.646C97.9201 378.822 100.534 376.325 102.651 375.123C113.595 368.91 124.152 369.709 134.84 377.273C136.168 378.162 137.394 378.787 138.485 379.188C143.547 384.542 147.001 392.305 147.435 402.6C148.728 403.307 149.895 404.287 150.885 405.479C151.45 406.161 151.957 406.913 152.397 407.722Z" fill="#50297B"/>
<path fill-rule="evenodd" clip-rule="evenodd" d="M149.905 406.306C148.018 404.033 145.421 402.627 142.56 402.627C142.173 402.627 141.804 402.65 141.453 402.695C141.248 402.722 141.044 402.756 140.841 402.797V427.876C141.044 427.917 141.248 427.951 141.453 427.977C141.804 428.023 142.173 428.047 142.56 428.047C145.421 428.047 148.018 426.64 149.905 424.366C151.817 422.061 153 418.869 153 415.337C153 411.804 151.817 408.611 149.905 406.306Z" fill="#50297B"/>
<path fill-rule="evenodd" clip-rule="evenodd" d="M91.4394 402.143C88.5785 402.143 85.9815 403.549 84.0954 405.822C82.1833 408.127 81 411.319 81 414.852C81 418.385 82.1833 421.578 84.0954 423.882C85.9815 426.156 88.5785 427.562 91.4394 427.562C91.8261 427.562 92.1963 427.539 92.5467 427.493C92.7523 427.467 92.956 427.433 93.1589 427.392V402.313C92.956 402.272 92.7523 402.238 92.5467 402.211C92.1963 402.166 91.8261 402.143 91.4394 402.143Z" fill="#50297B"/>
<path d="M30.8854 496.556C28.8562 498.502 27.5946 501.183 27.5946 504.132V529.282C27.5946 532.23 28.8562 534.912 30.8854 536.858C32.9136 538.804 35.7123 540.012 38.7858 540.012H133.213C136.289 540.012 139.085 538.804 141.115 536.858C143.144 534.912 144.405 532.23 144.405 529.282V504.132C144.405 501.183 143.144 498.502 141.115 496.556C139.085 494.611 136.289 493.402 133.213 493.402H38.7858C35.7123 493.402 32.9136 494.611 30.8854 496.556ZM103.661 470.683H71.1371V488.035H103.661V470.683ZM133.213 488.036C137.833 488.036 142.03 489.846 145.071 492.763C148.112 495.678 150 499.703 150 504.132V529.282C150 533.711 148.112 537.735 145.071 540.651C142.03 543.568 137.833 545.377 133.213 545.377H38.7858C34.1667 545.377 29.97 543.568 26.9276 540.651C23.8881 537.735 22 533.711 22 529.282V504.132C22 499.703 23.8881 495.678 26.9276 492.763C29.97 489.846 34.1667 488.036 38.7858 488.036H68.3393V469.342C68.3393 468.601 68.9659 468 69.7373 468H105.06C105.833 468 106.459 468.601 106.459 469.342V488.036H133.213Z" fill="#88288A"/>
<path fill-rule="evenodd" clip-rule="evenodd" d="M120.64 517.544C120.64 516.136 121.831 514.996 123.299 514.996C124.766 514.996 125.956 516.136 125.956 517.544C125.956 518.953 124.766 520.093 123.299 520.093C121.831 520.093 120.64 518.953 120.64 517.544ZM108.872 517.544C108.872 525.185 115.331 531.377 123.299 531.377C131.266 531.377 137.724 525.185 137.724 517.544C137.724 509.906 131.266 503.712 123.299 503.712C115.331 503.712 108.872 509.906 108.872 517.544Z" fill="#88288A"/>
<path fill-rule="evenodd" clip-rule="evenodd" d="M45.59 517.544C45.59 516.136 46.7791 514.996 48.2467 514.996C49.7142 514.996 50.9033 516.136 50.9033 517.544C50.9033 518.953 49.7142 520.093 48.2467 520.093C46.7791 520.093 45.59 518.953 45.59 517.544ZM33.8203 517.544C33.8203 525.185 40.2795 531.377 48.2467 531.377C56.2139 531.377 62.6721 525.185 62.6721 517.544C62.6721 509.906 56.2139 503.712 48.2467 503.712C40.2795 503.712 33.8203 509.906 33.8203 517.544Z" fill="#88288A"/>
<path d="M93.3349 517.962H78.6649V515.449H93.3349V517.962ZM67.9893 521.57H104.01V511.845H67.9893V521.57Z" fill="#88288A"/>
<path d="M101.214 502.958H98.4149V500.277H101.214V502.958ZM92.8202 500.277H95.6189V502.958H92.8202V500.277ZM87.2256 500.277H90.0224V502.958H87.2256V500.277ZM81.6291 500.277H84.4278V502.958H81.6291V500.277ZM76.0335 500.277H78.8304V502.958H76.0335V500.277ZM70.437 500.277H73.2357V502.958H70.437V500.277ZM65.1914 502.958H67.6402V500.277H65.1914V502.958ZM104.01 500.277H106.809V502.958H104.01V500.277Z" fill="#88288A"/>
<path fill-rule="evenodd" clip-rule="evenodd" d="M34.1605 308.006C31.3113 307.851 28.3993 308.966 26.2663 310.804L35.2222 276.784C36.794 277.01 59.9188 280.321 62.5392 280.592C64.002 280.744 64.335 281.427 64.3309 282.024L64.0786 282.981L54.2858 320.173H54.341C53.8515 323.809 56.4905 326.755 60.7116 326.986C65.385 327.241 70.2272 324.075 71.5281 319.914C72.8283 315.753 70.0948 312.174 65.4229 311.918C62.544 311.76 59.6003 312.902 57.4611 314.774L66.4611 280.591C66.4611 280.591 67.378 276.752 67.8102 274.855C68.2411 272.957 66.0309 272.592 66.0309 272.592C66.0309 272.592 39.9907 269.454 37.373 269.088C34.7554 268.723 34.7024 270.987 34.7024 270.987L33.4215 276.773L23 316.355H23.0682C22.6346 319.947 25.2646 322.846 29.4506 323.074C34.1233 323.329 38.9662 320.164 40.2664 316.003C41.5666 311.841 38.8325 308.262 34.1605 308.006Z" fill="#88288A"/>
<path fill-rule="evenodd" clip-rule="evenodd" d="M97.1452 308.25C100.472 307.898 103.516 309.063 105.312 311.095V266.461C105.312 265.99 105.669 265.605 106.107 265.605H106.205C106.641 265.605 107 265.99 107 266.461V314.692C107 314.779 106.988 314.863 106.965 314.941C107.268 319.062 103.519 322.806 98.5281 323.335C93.4914 323.868 89.0986 320.923 88.7167 316.758C88.3355 312.593 92.1078 308.784 97.1452 308.25Z" fill="#88288A"/>
<path fill-rule="evenodd" clip-rule="evenodd" d="M83.6185 254.881C84.312 256.936 86.5711 260.529 88.3298 262.849C89.57 264.483 90.9915 265.62 92.2255 267.229C93.9352 269.456 95.072 271.941 95.6862 274.659C95.9213 275.699 96.0771 276.767 96.1619 277.834C96.2715 279.216 96.2598 280.617 96.093 281.989C95.6559 285.59 94.253 288.238 92.4364 290.476C91.9718 290.922 91.3824 290.426 91.9828 289.498C93.7759 286.679 94.5418 283.362 94.1185 279.468C94.0344 278.69 93.9145 278 93.7132 277.247C93.3051 275.723 92.6998 274.339 91.898 273.098C91.1521 271.946 90.6675 271.577 89.7209 270.695C87.3894 268.521 85.3578 265.901 83.6185 262.857V298.689C83.6185 298.828 83.5923 298.961 83.5461 299.082C83.5999 299.402 83.6268 299.729 83.6268 300.062C83.6268 304.141 79.5277 307.448 74.471 307.448C69.4157 307.448 65.3159 304.141 65.3159 300.062C65.3159 295.982 69.4157 292.675 74.471 292.675C77.3968 292.675 80.0026 293.783 81.6779 295.505V254.043C81.6779 253.469 82.1142 253 82.6478 253C83.1807 253 83.6185 253.469 83.6185 254.043V254.881Z" fill="#88288A"/>
<path d="M815.906 481.954L805.558 485.279L795.644 488.464C795.389 489.005 794.993 489.448 794.516 489.758L794.515 489.755C794.038 490.065 793.478 490.245 792.896 490.253C792.664 490.256 792.429 490.234 792.194 490.18C791.356 489.994 790.672 489.476 790.242 488.793C789.815 488.109 789.639 487.258 789.822 486.405C790.004 485.548 790.51 484.847 791.178 484.409C791.68 484.079 792.276 483.895 792.896 483.905C793.099 483.908 793.306 483.932 793.512 483.977C793.78 484.038 794.04 484.137 794.287 484.268L794.289 484.265L794.316 484.279L805.558 479.328L808.822 477.89C807.789 477.493 806.7 477.131 805.558 476.809C801.797 475.749 797.486 475.126 792.896 475.075C792.695 475.073 792.495 475.072 792.294 475.072C791.157 475.072 790.035 475.107 788.935 475.175C783.582 475.507 778.709 476.623 774.78 478.289C771.529 479.666 768.925 481.421 767.229 483.42L774.78 485.948L787.281 490.132L787.308 490.113C787.537 489.963 787.786 489.84 788.052 489.755C788.344 489.659 788.642 489.611 788.935 489.608C789.455 489.597 789.962 489.725 790.413 489.963C791.116 490.335 791.683 490.986 791.943 491.823H791.948C792.205 492.655 792.108 493.518 791.743 494.239C791.378 494.96 790.742 495.543 789.927 495.808C789.597 495.915 789.263 495.962 788.935 495.955C788.458 495.946 787.993 495.822 787.576 495.603C787.072 495.338 786.639 494.935 786.337 494.424L774.78 491.938L765.106 489.856C765.657 493.68 769.302 497.069 774.78 499.393C778.709 501.058 783.581 502.175 788.935 502.507C790.035 502.575 791.157 502.611 792.294 502.611C792.495 502.611 792.695 502.609 792.896 502.606C797.486 502.557 801.796 501.934 805.558 500.873C813.908 498.519 819.556 494.015 819.556 488.842C819.556 486.331 818.227 483.979 815.906 481.954Z" fill="#ED5A24"/>
<path d="M834.841 474.647L794.765 487.521C794.528 488.596 793.487 489.274 792.434 489.039C791.377 488.803 790.707 487.733 790.938 486.652C791.169 485.57 792.214 484.884 793.27 485.121C793.627 485.199 793.938 485.373 794.186 485.609L832.52 468.726C838.156 466.243 840.392 472.891 834.841 474.647Z" fill="#ED5A24"/>
<path d="M794.381 538.295C796.844 538.201 799.313 537.989 801.787 537.661V507.728C799.356 508.157 796.872 508.415 794.381 508.506V538.295Z" fill="#ED5A24"/>
<path d="M782.803 537.844C785.265 538.132 787.732 538.297 790.207 538.338V508.499C787.712 508.402 785.229 508.136 782.803 507.7V537.844Z" fill="#ED5A24"/>
<path d="M817.54 501.837V534.072C819.15 533.556 820.762 532.996 822.376 532.389V498.105C820.904 499.488 819.28 500.73 817.54 501.837Z" fill="#ED5A24"/>
<path d="M805.961 537.002C808.424 536.549 810.891 535.984 813.365 535.311V504.127C811.025 505.226 808.538 506.117 805.961 506.805V537.002Z" fill="#ED5A24"/>
<path d="M765.204 498.525C761.847 495.177 760.299 491.871 760.071 488.773L755.921 487.881C756.172 492.344 758.465 496.38 762.213 499.643V532.389C763.823 533.061 765.434 533.676 767.049 534.233V502.979C768.352 503.698 769.742 504.356 771.224 504.939V535.54C773.686 536.235 776.154 536.799 778.628 537.234V507.088C779.817 507.325 781.027 507.534 782.27 507.686C777.755 506.57 770.006 503.316 765.204 498.525Z" fill="#ED5A24"/>
<path d="M777.764 471.36C787.679 469.129 800.122 470.624 809.308 472.578C797.806 466.108 777.958 464.588 766.118 471.661C762.273 473.958 759.321 476.871 757.599 480.197L761.911 481.64C764.979 476.6 771.381 472.797 777.764 471.36Z" fill="#ED5A24"/>
<path d="M748.524 485.096L787.125 493.403C787.458 494.449 788.554 495.027 789.582 494.693C790.614 494.357 791.186 493.229 790.857 492.174C790.529 491.118 789.427 490.534 788.395 490.869C788.049 490.983 787.755 491.184 787.527 491.444L750.3 478.981C744.469 477.026 742.838 483.872 748.524 485.096Z" fill="#ED5A24"/>
<path d="M762.213 540.711C772.4 544.099 782.531 545.924 792.578 545.998C802.626 546.071 812.569 544.391 822.376 540.775V536.239C812.569 540.057 802.631 541.825 792.596 541.752C782.578 541.68 772.439 539.77 762.213 536.236V540.711Z" fill="#ED5A24"/>
<path d="M698.668 433.832C696.608 425.776 699.397 416.473 712.887 412.212C704.423 392.586 725.313 366.922 751.072 343.41C718.767 367.504 701.889 386.67 709.539 410.414C692.751 414.684 690.96 431.558 697.573 442.409C708.436 460.229 741.34 454.008 743.26 433.929C738.276 449.662 704.66 457.27 698.668 433.832Z" fill="#F39A1F"/>
<path d="M722.546 385.545C722.546 385.545 733.697 388.127 736.666 395.368C738.584 400.049 735.849 403.269 733.264 405.767C731.512 407.46 728.293 409.913 729.093 412.704C730.233 416.685 735.122 420.175 736.438 426.291C737.096 429.341 736.712 432.323 735.498 434.916C730.75 445.072 713.57 446.256 708.632 444.203C716.084 447.728 728.852 446.763 736.289 439.608C740.626 435.436 743.05 429.6 740.681 423.677C739.686 421.189 738.249 419.011 737.1 417.443C733.746 412.877 730.28 412.465 736.005 406.925C737.938 405.056 740.23 403.253 741.477 400.516C744.084 394.783 740.137 389.059 728.09 384.756C735.881 368.369 746.417 354.295 758.974 340C745.686 351.537 733.124 365.379 722.546 385.545Z" fill="#F39A1F"/>
<path d="M717.474 421.204C717.561 421.204 717.649 421.206 717.737 421.211C720.619 421.356 722.837 423.812 722.693 426.694C722.55 429.486 720.241 431.656 717.474 431.652C717.386 431.652 717.297 431.65 717.209 431.647C714.326 431.5 712.11 429.047 712.254 426.166C712.397 423.371 714.706 421.203 717.474 421.204ZM725.354 389.506C725.137 389.551 724.938 389.684 724.807 389.883C723.345 392.15 721.95 394.436 720.663 396.758C719.507 398.842 718.435 400.958 717.474 403.119C717.363 403.37 717.253 403.62 717.145 403.87C716.097 406.302 715.195 408.787 714.473 411.346C713.747 413.908 713.205 416.544 712.878 419.266V419.278L712.877 419.283C712.487 419.536 712.121 419.816 711.779 420.124L711.778 420.126C710.165 421.583 709.107 423.656 708.987 425.999C708.87 428.343 709.71 430.512 711.169 432.124C712.626 433.738 714.701 434.795 717.045 434.914C717.189 434.923 717.333 434.926 717.474 434.926C719.649 434.927 721.654 434.102 723.169 432.732C724.785 431.274 725.839 429.199 725.957 426.859C726.077 424.515 725.234 422.344 723.777 420.731C723.377 420.288 722.929 419.887 722.442 419.536C722.458 419.499 722.473 419.459 722.482 419.419C723.035 417.336 723.71 415.311 724.498 413.34C725.282 411.374 726.183 409.454 727.189 407.584C728.193 405.714 729.302 403.89 730.505 402.108C731.713 400.323 733.01 398.588 734.389 396.896C735.113 396.006 733.762 394.908 733.039 395.796C731.618 397.538 730.289 399.316 729.059 401.135C727.826 402.958 726.686 404.832 725.653 406.759C724.622 408.68 723.693 410.66 722.878 412.698C722.106 414.63 721.438 416.612 720.885 418.646C720.586 418.516 720.282 418.4 719.969 418.306C720.461 416.212 721.091 414.19 721.849 412.222C722.615 410.224 723.518 408.272 724.543 406.346C725.57 404.415 726.727 402.506 728.002 400.594C729.278 398.686 730.675 396.774 732.183 394.843C732.331 394.652 732.389 394.423 732.363 394.202C732.338 393.999 732.242 393.803 732.078 393.658L732.071 393.648L732.033 393.619L732.031 393.618C731.842 393.471 731.613 393.414 731.394 393.439L731.39 393.44C731.169 393.467 730.958 393.58 730.811 393.767L730.81 393.768C729.279 395.731 727.855 397.678 726.553 399.631C725.242 401.592 724.055 403.555 723.003 405.528L723.005 405.532C721.946 407.519 721.015 409.536 720.222 411.602C719.425 413.676 718.767 415.791 718.257 417.967V417.968C718.139 417.959 718.023 417.948 717.903 417.943C717.758 417.936 717.615 417.934 717.474 417.934H717.415L717.474 417.62C717.818 415.8 718.279 413.991 718.85 412.199C719.541 410.038 720.391 407.89 721.395 405.758C722.398 403.627 723.558 401.507 724.861 399.402C726.166 397.292 727.613 395.2 729.186 393.132C729.331 392.939 729.385 392.706 729.355 392.484C729.323 392.266 729.209 392.058 729.015 391.912L729.013 391.911C728.822 391.766 728.59 391.712 728.371 391.742C728.151 391.772 727.943 391.886 727.798 392.078L727.794 392.08C726.179 394.204 724.701 396.343 723.373 398.49C722.041 400.643 720.853 402.819 719.818 405.018C718.917 406.928 718.133 408.86 717.474 410.807C717.375 411.096 717.282 411.386 717.189 411.676C716.509 413.811 715.978 415.967 715.609 418.138C715.319 418.203 715.034 418.283 714.755 418.376C715.075 416.13 715.551 413.943 716.154 411.81C716.542 410.436 716.985 409.083 717.474 407.747C717.869 406.674 718.293 405.611 718.749 404.558C719.765 402.191 720.927 399.874 722.193 397.595C723.463 395.306 724.835 393.056 726.274 390.827L726.275 390.823C726.402 390.623 726.441 390.386 726.391 390.168C726.345 389.952 726.214 389.752 726.011 389.622C725.81 389.492 725.571 389.456 725.354 389.506Z" fill="#F39A1F"/>
<path d="M838.23 324.578C838.23 324.958 838.075 325.302 837.827 325.55C837.58 325.797 837.24 325.95 836.865 325.95H832.848H828.831C828.457 325.95 828.116 325.797 827.868 325.55C827.622 325.303 827.465 324.958 827.465 324.578V301.075C828.429 300.969 829.184 300.163 829.184 299.191V255.422C829.184 254.893 828.96 254.413 828.601 254.069C828.675 254.056 828.752 254.05 828.831 254.05H832.848H836.347C835.977 254.396 835.745 254.882 835.745 255.422V299.191C835.745 300.235 836.616 301.088 837.684 301.088H838.23V324.578ZM825.827 324.578C825.827 324.958 825.673 325.303 825.425 325.55C825.177 325.797 824.837 325.95 824.463 325.95H820.445H816.427C816.054 325.95 815.714 325.797 815.466 325.55C815.218 325.302 815.064 324.958 815.064 324.578V255.422C815.064 255.041 815.218 254.697 815.466 254.448C815.714 254.203 816.054 254.05 816.427 254.05H820.445H822.928C822.558 254.396 822.325 254.882 822.325 255.422V299.191C822.325 300.235 823.197 301.088 824.263 301.088H825.827V324.578ZM813.426 324.578C813.426 324.958 813.268 325.303 813.021 325.55C812.775 325.797 812.432 325.95 812.06 325.95H808.041H804.023C803.649 325.95 803.309 325.797 803.062 325.55C802.815 325.303 802.659 324.958 802.659 324.578V255.422C802.659 255.041 802.815 254.697 803.062 254.448C803.309 254.203 803.649 254.05 804.023 254.05H807.973C807.601 254.396 807.368 254.882 807.368 255.422V299.191C807.368 299.763 807.63 300.277 808.041 300.625C808.382 300.914 808.823 301.088 809.306 301.088H812.29C812.713 301.088 813.107 300.954 813.426 300.727V324.578ZM801.021 324.578C801.021 324.958 800.867 325.303 800.617 325.55C800.372 325.797 800.03 325.95 799.658 325.95H795.638H791.619C791.249 325.95 790.906 325.797 790.661 325.55C790.411 325.303 790.257 324.958 790.257 324.578V300.867C790.527 301.008 790.834 301.088 791.16 301.088H794.143C794.743 301.088 795.281 300.817 795.638 300.394C795.914 300.067 796.083 299.648 796.083 299.191V255.422C796.083 254.965 795.914 254.546 795.638 254.218C795.589 254.158 795.535 254.102 795.477 254.05H795.638H799.658C800.03 254.05 800.372 254.203 800.617 254.448C800.867 254.697 801.021 255.041 801.021 255.422V324.578ZM788.618 324.578C788.618 324.958 788.463 325.303 788.216 325.55C787.968 325.797 787.628 325.95 787.255 325.95H783.236H779.216C778.845 325.95 778.503 325.797 778.257 325.55C778.009 325.303 777.854 324.958 777.854 324.578V301.088H779.382C780.45 301.088 781.32 300.235 781.32 299.191V255.422C781.32 254.882 781.087 254.396 780.717 254.05H783.236H787.255C787.627 254.05 787.968 254.203 788.215 254.448C788.463 254.697 788.618 255.041 788.618 255.422V324.578ZM776.214 324.578C776.214 324.958 776.061 325.303 775.813 325.55C775.567 325.797 775.225 325.95 774.85 325.95H770.833H766.816C766.442 325.95 766.101 325.797 765.855 325.55C765.607 325.303 765.452 324.958 765.452 324.578V255.422C765.452 255.041 765.607 254.697 765.855 254.448C766.101 254.203 766.442 254.05 766.816 254.05H770.833H774.85C774.918 254.05 774.986 254.054 775.05 254.064C774.687 254.41 774.46 254.89 774.46 255.422V299.191C774.46 300.173 775.236 300.988 776.214 301.079V324.578ZM763.812 324.578C763.812 324.958 763.657 325.303 763.41 325.55C763.163 325.797 762.821 325.95 762.447 325.95H758.43H754.411C754.039 325.95 753.698 325.797 753.452 325.55C753.203 325.303 753.05 324.958 753.05 324.578V301.007C753.227 301.058 753.413 301.088 753.607 301.088H756.592C757.447 301.088 758.175 300.54 758.43 299.786C758.494 299.598 758.528 299.4 758.528 299.191V255.422C758.528 255.214 758.494 255.013 758.43 254.827C758.329 254.528 758.153 254.263 757.925 254.05H758.43H762.447C762.821 254.05 763.163 254.203 763.41 254.448C763.657 254.697 763.812 255.041 763.812 255.422V324.578ZM751.408 324.578C751.408 324.958 751.256 325.303 751.006 325.55C750.76 325.797 750.421 325.95 750.045 325.95H746.026H742.011C741.638 325.95 741.296 325.797 741.049 325.55C740.8 325.303 740.644 324.958 740.644 324.578V301.084L740.779 301.088H743.762C744.828 301.088 745.7 300.235 745.7 299.191V255.422C745.7 254.882 745.468 254.396 745.097 254.05H746.026H750.045C750.421 254.05 750.76 254.203 751.006 254.448C751.256 254.697 751.408 255.041 751.408 255.422V324.578ZM739.006 324.578C739.006 324.958 738.852 325.303 738.602 325.55C738.358 325.797 738.017 325.95 737.643 325.95H733.625H729.607C729.234 325.95 728.891 325.797 728.645 325.55C728.398 325.303 728.244 324.958 728.244 324.578V301.088H730.922C731.988 301.088 732.859 300.235 732.859 299.191V255.422C732.859 254.882 732.626 254.396 732.256 254.05H733.625H737.643C738.017 254.05 738.356 254.203 738.602 254.448C738.735 254.582 738.842 254.742 738.911 254.92C738.864 255.078 738.842 255.249 738.842 255.422V299.191C738.842 299.464 738.9 299.722 739.006 299.956V324.578ZM836.865 253H832.848H828.831C828.261 253 827.734 253.197 827.319 253.525H827.246H825.972C825.558 253.197 825.032 253 824.463 253H820.445H816.427C815.756 253 815.145 253.276 814.704 253.715C814.518 253.901 814.363 254.117 814.245 254.353C814.127 254.117 813.969 253.901 813.785 253.715C813.342 253.276 812.731 253 812.06 253H808.041H804.023C803.353 253 802.743 253.276 802.301 253.715C802.115 253.901 801.959 254.117 801.841 254.353C801.723 254.117 801.566 253.901 801.38 253.715C800.941 253.276 800.328 253 799.658 253H795.638H791.619C790.95 253 790.34 253.274 789.899 253.715C789.713 253.901 789.557 254.115 789.436 254.353C789.319 254.115 789.164 253.901 788.978 253.715C788.537 253.276 787.924 253 787.255 253H783.236H779.216C778.651 253 778.124 253.197 777.711 253.525H776.4H776.362C775.945 253.197 775.42 253 774.85 253H770.833H766.816C766.146 253 765.535 253.274 765.092 253.715C764.907 253.901 764.751 254.117 764.633 254.353C764.513 254.117 764.358 253.901 764.171 253.715C763.73 253.276 763.119 253 762.447 253H758.43H754.411C753.741 253 753.129 253.274 752.69 253.715L752.613 253.796C752.434 253.901 752.275 254.034 752.139 254.189C752.034 254.016 751.91 253.857 751.769 253.715C751.327 253.276 750.719 253 750.045 253H746.026H742.011C741.428 253 740.89 253.207 740.471 253.55C740.134 253.602 739.823 253.742 739.566 253.944C739.506 253.863 739.438 253.787 739.366 253.715C738.923 253.276 738.313 253 737.643 253H733.625H729.607C729.037 253 728.512 253.197 728.099 253.525H727.939C726.871 253.525 726 254.378 726 255.422V299.191C726 299.969 726.484 300.64 727.169 300.933V324.578C727.169 325.241 727.444 325.845 727.884 326.284C728.324 326.725 728.936 327 729.607 327H733.625H737.643C738.313 327 738.925 326.725 739.366 326.284C739.551 326.1 739.708 325.885 739.826 325.646C739.945 325.885 740.101 326.1 740.286 326.284C740.728 326.725 741.339 327 742.011 327H746.026H750.045C750.719 327 751.327 326.725 751.769 326.284C751.955 326.1 752.112 325.885 752.229 325.646C752.349 325.885 752.505 326.1 752.69 326.284C753.129 326.725 753.741 327 754.411 327H758.43H762.447C763.119 327 763.73 326.725 764.171 326.284C764.358 326.1 764.513 325.885 764.633 325.646C764.751 325.885 764.907 326.1 765.092 326.284C765.534 326.725 766.146 327 766.816 327H770.833H774.85C775.523 327 776.133 326.725 776.574 326.284C776.76 326.1 776.918 325.885 777.035 325.646C777.152 325.885 777.311 326.1 777.496 326.284C777.936 326.725 778.547 327 779.216 327H783.236H787.255C787.924 327 788.537 326.725 788.978 326.284C789.164 326.1 789.319 325.885 789.436 325.647C789.557 325.885 789.713 326.1 789.897 326.284C790.34 326.725 790.95 327 791.619 327H795.638H799.658C800.328 327 800.941 326.725 801.38 326.284C801.566 326.1 801.723 325.885 801.841 325.646C801.959 325.885 802.115 326.1 802.301 326.284C802.743 326.725 803.353 327 804.023 327H808.041H812.06C812.731 327 813.342 326.725 813.785 326.284C813.97 326.1 814.127 325.883 814.245 325.646C814.362 325.881 814.517 326.096 814.704 326.282V326.284C815.145 326.725 815.756 327 816.427 327H820.445H824.463C825.135 327 825.745 326.725 826.187 326.284C826.373 326.1 826.528 325.885 826.647 325.647C826.765 325.885 826.921 326.1 827.106 326.284C827.548 326.725 828.16 327 828.831 327H832.848H836.865C837.538 327 838.148 326.725 838.589 326.284L838.591 326.282C838.757 326.116 838.887 325.922 839 325.715V253.525H838.375C837.958 253.197 837.434 253 836.865 253Z" fill="#ED5A24"/>
<defs>
<linearGradient id="paint0_linear_303_1184" x1="55" y1="7.95115e-05" x2="829" y2="117" gradientUnits="userSpaceOnUse">
<stop stop-color="#F9D29D" stop-opacity="0.49"/>
<stop offset="1" stop-color="#FEC3F1" stop-opacity="0.6"/>
</linearGradient>
</defs>
</svg>
