<svg width="852" height="522" viewBox="0 0 852 522" fill="none" xmlns="http://www.w3.org/2000/svg">
<rect width="852" height="522" fill="white"/>
<path d="M0 234V0H852V234C731.5 234 625.496 167 433 167C265.906 167 108.5 234 0 234Z" fill="url(#paint0_linear_303_1184)"/>
<path fill-rule="evenodd" clip-rule="evenodd" d="M144.41 335.182C143.904 334.638 143.206 334.3 142.438 334.3C141.671 334.3 140.973 334.638 140.467 335.182C139.96 335.725 139.647 336.475 139.647 337.3V356.81C139.647 357.634 139.96 358.384 140.467 358.928C140.973 359.471 141.671 359.809 142.438 359.809C143.206 359.809 143.904 359.471 144.41 358.928C144.916 358.384 145.23 357.634 145.23 356.81V337.3C145.23 336.475 144.916 335.725 144.41 335.182Z" fill="#50297B"/>
<path fill-rule="evenodd" clip-rule="evenodd" d="M118.295 334.999C117.789 334.456 117.091 334.118 116.323 334.118C115.556 334.118 114.858 334.456 114.352 334.999C113.845 335.543 113.531 336.293 113.531 337.118V356.628C113.531 357.452 113.845 358.203 114.352 358.746C114.858 359.29 115.556 359.627 116.323 359.627C117.091 359.627 117.789 359.29 118.295 358.746C118.801 358.203 119.115 357.452 119.115 356.628V337.118C119.115 336.293 118.801 335.543 118.295 334.999Z" fill="#50297B"/>
<path fill-rule="evenodd" clip-rule="evenodd" d="M154.336 341.58C155.255 333.983 153.544 327.536 150.125 321.837C149.579 320.926 148.994 320.065 148.377 319.255C148.613 318.127 147.984 316.369 146.019 314.652C136.473 307.037 127.25 305.908 117.857 311.534C116.712 312.221 112.256 314.744 112.122 317.268C111.854 317.546 111.59 317.828 111.332 318.121C106.26 323.866 104.117 331.794 104.434 341.197C104.742 340.596 105.097 340.039 105.491 339.532C106.146 338.691 106.912 337.991 107.758 337.469C107.771 329.749 110.361 323.807 114.263 319.748C115.929 319.88 117.772 318.005 119.264 317.102C126.98 312.438 134.423 313.037 141.958 318.717C142.895 319.384 143.758 319.854 144.528 320.155C148.097 324.175 150.532 330.004 150.838 337.734C151.75 338.265 152.572 339.001 153.27 339.896C153.669 340.408 154.026 340.972 154.336 341.58Z" fill="#50297B"/>
<path fill-rule="evenodd" clip-rule="evenodd" d="M152.579 340.517C151.249 338.81 149.418 337.754 147.401 337.754C147.128 337.754 146.868 337.771 146.62 337.805C146.476 337.825 146.332 337.851 146.189 337.882V356.712C146.332 356.743 146.476 356.769 146.62 356.788C146.868 356.823 147.128 356.84 147.401 356.84C149.418 356.84 151.249 355.784 152.579 354.077C153.927 352.346 154.761 349.95 154.761 347.297C154.761 344.645 153.927 342.247 152.579 340.517Z" fill="#50297B"/>
<path fill-rule="evenodd" clip-rule="evenodd" d="M111.36 337.391C109.343 337.391 107.512 338.446 106.182 340.153C104.834 341.884 104 344.281 104 346.934C104 349.586 104.834 351.983 106.182 353.714C107.512 355.421 109.343 356.477 111.36 356.477C111.633 356.477 111.894 356.459 112.141 356.425C112.286 356.405 112.429 356.38 112.572 356.349V337.518C112.429 337.487 112.286 337.462 112.141 337.442C111.894 337.408 111.633 337.391 111.36 337.391Z" fill="#50297B"/>
<path d="M18.2643 389.441C16.8337 390.902 15.9443 392.916 15.9443 395.13V414.014C15.9443 416.227 16.8337 418.241 18.2643 419.702C19.6943 421.164 21.6674 422.071 23.8343 422.071H90.4074C92.5756 422.071 94.5474 421.164 95.978 419.702C97.4086 418.241 98.298 416.227 98.298 414.014V395.13C98.298 392.916 97.4086 390.902 95.978 389.441C94.5474 387.981 92.5756 387.074 90.4074 387.074H23.8343C21.6674 387.074 19.6943 387.981 18.2643 389.441ZM69.5723 370.015H46.6426V383.044H69.5723V370.015ZM90.4074 383.044C93.6646 383.044 96.6233 384.403 98.7676 386.593C100.911 388.782 102.242 391.804 102.242 395.13V414.014C102.242 417.339 100.911 420.361 98.7676 422.55C96.6233 424.74 93.6646 426.099 90.4074 426.099H23.8343C20.5777 426.099 17.619 424.74 15.4741 422.55C13.3311 420.361 12 417.339 12 414.014V395.13C12 391.804 13.3311 388.782 15.4741 386.593C17.619 384.403 20.5777 383.044 23.8343 383.044H44.6701V369.008C44.6701 368.451 45.1118 368 45.6557 368H70.5592C71.1037 368 71.5454 368.451 71.5454 369.008V383.044H90.4074Z" fill="#88288A"/>
<path fill-rule="evenodd" clip-rule="evenodd" d="M81.5433 405.2C81.5433 404.143 82.3829 403.287 83.4176 403.287C84.4516 403.287 85.2906 404.143 85.2906 405.2C85.2906 406.258 84.4516 407.114 83.4176 407.114C82.3829 407.114 81.5433 406.258 81.5433 405.2ZM73.2461 405.2C73.2461 410.937 77.7999 415.587 83.4176 415.587C89.0346 415.587 93.5878 410.937 93.5878 405.2C93.5878 399.465 89.0346 394.815 83.4176 394.815C77.7999 394.815 73.2461 399.465 73.2461 405.2Z" fill="#88288A"/>
<path fill-rule="evenodd" clip-rule="evenodd" d="M28.6313 405.2C28.6313 404.143 29.4697 403.287 30.5043 403.287C31.539 403.287 32.3774 404.143 32.3774 405.2C32.3774 406.258 31.539 407.114 30.5043 407.114C29.4697 407.114 28.6313 406.258 28.6313 405.2ZM20.3335 405.2C20.3335 410.937 24.8873 415.587 30.5043 415.587C36.1214 415.587 40.6745 410.937 40.6745 405.2C40.6745 399.465 36.1214 394.815 30.5043 394.815C24.8873 394.815 20.3335 399.465 20.3335 405.2Z" fill="#88288A"/>
<path d="M62.2925 405.514H51.9498V403.628H62.2925V405.514ZM44.4233 408.223H69.819V400.921H44.4233V408.223Z" fill="#88288A"/>
<path d="M67.847 394.249H65.8738V392.235H67.847V394.249ZM61.9295 392.235H63.9027V394.249H61.9295V392.235ZM57.9852 392.235H59.957V394.249H57.9852V392.235ZM54.0395 392.235H56.0127V394.249H54.0395V392.235ZM50.0946 392.235H52.0664V394.249H50.0946V392.235ZM46.1489 392.235H48.1221V394.249H46.1489V392.235ZM42.4507 394.249H44.1771V392.235H42.4507V394.249ZM69.8188 392.235H71.7919V394.249H69.8188V392.235Z" fill="#88288A"/>
<path fill-rule="evenodd" clip-rule="evenodd" d="M30.5734 294.301C28.5647 294.185 26.5117 295.022 25.0079 296.403L31.3219 270.858C32.4301 271.028 48.7335 273.514 50.5809 273.718C51.6123 273.831 51.847 274.344 51.8441 274.793L51.6662 275.511L44.7621 303.437H44.801C44.4559 306.167 46.3165 308.379 49.2924 308.552C52.5872 308.744 56.0011 306.367 56.9183 303.243C57.8349 300.119 55.9078 297.431 52.614 297.239C50.5843 297.12 48.509 297.977 47.0008 299.384L53.3459 273.717C53.3459 273.717 53.9924 270.834 54.2971 269.41C54.6009 267.985 53.0427 267.711 53.0427 267.711C53.0427 267.711 34.6838 265.354 32.8383 265.08C30.9929 264.806 30.9555 266.505 30.9555 266.505L30.0524 270.85L22.7051 300.57H22.7532C22.4475 303.268 24.3017 305.444 27.2529 305.615C30.5472 305.807 33.9616 303.43 34.8782 300.306C35.7949 297.181 33.8673 294.494 30.5734 294.301Z" fill="#88288A"/>
<path fill-rule="evenodd" clip-rule="evenodd" d="M74.9787 294.485C77.3243 294.22 79.4706 295.095 80.7363 296.62V263.107C80.7363 262.754 80.9885 262.464 81.2971 262.464H81.3662C81.6738 262.464 81.9266 262.754 81.9266 263.107V299.322C81.9266 299.387 81.9178 299.45 81.9018 299.509C82.1156 302.603 79.4726 305.414 75.9537 305.811C72.4028 306.212 69.3058 304 69.0365 300.873C68.7678 297.745 71.4273 294.885 74.9787 294.485Z" fill="#88288A"/>
<path fill-rule="evenodd" clip-rule="evenodd" d="M65.4422 254.412C65.9312 255.955 67.5239 258.653 68.7638 260.395C69.6381 261.622 70.6403 262.476 71.5103 263.684C72.7157 265.356 73.5171 267.222 73.9502 269.262C74.1159 270.044 74.2258 270.846 74.2856 271.647C74.3628 272.684 74.3546 273.736 74.2369 274.766C73.9288 277.471 72.9397 279.459 71.659 281.139C71.3315 281.474 70.9159 281.101 71.3392 280.405C72.6034 278.288 73.1434 275.797 72.845 272.874C72.7857 272.29 72.7011 271.771 72.5592 271.206C72.2714 270.062 71.8447 269.022 71.2794 268.09C70.7536 267.225 70.4119 266.949 69.7446 266.287C68.1008 264.654 66.6685 262.687 65.4422 260.401V287.306C65.4422 287.41 65.4237 287.51 65.3912 287.6C65.4291 287.841 65.448 288.087 65.448 288.337C65.448 291.399 62.5581 293.882 58.9931 293.882C55.429 293.882 52.5386 291.399 52.5386 288.337C52.5386 285.273 55.429 282.79 58.9931 282.79C61.0558 282.79 62.893 283.622 64.074 284.915V253.783C64.074 253.352 64.3817 253 64.7579 253C65.1336 253 65.4422 253.352 65.4422 253.783V254.412Z" fill="#88288A"/>
<path d="M805.99 371.228L798.694 373.725L791.705 376.116C791.525 376.523 791.246 376.855 790.91 377.088L790.909 377.086C790.572 377.318 790.178 377.453 789.767 377.46C789.604 377.462 789.438 377.445 789.272 377.404C788.682 377.265 788.199 376.876 787.897 376.364C787.595 375.849 787.471 375.211 787.6 374.57C787.729 373.927 788.086 373.4 788.556 373.071C788.91 372.824 789.33 372.686 789.767 372.693C789.911 372.695 790.057 372.713 790.202 372.747C790.39 372.793 790.574 372.867 790.748 372.965L790.749 372.963L790.769 372.974L798.694 369.256L800.995 368.177C800.268 367.878 799.499 367.607 798.694 367.365C796.043 366.569 793.003 366.101 789.767 366.063C789.626 366.061 789.485 366.061 789.343 366.061C788.541 366.061 787.751 366.087 786.975 366.138C783.201 366.388 779.765 367.226 776.995 368.476C774.703 369.511 772.867 370.828 771.671 372.329L776.995 374.227L785.808 377.369L785.828 377.355C785.989 377.242 786.165 377.149 786.352 377.086C786.558 377.014 786.768 376.978 786.975 376.975C787.341 376.967 787.699 377.063 788.017 377.242C788.513 377.521 788.912 378.01 789.096 378.639H789.099C789.28 379.263 789.212 379.911 788.955 380.452C788.697 380.994 788.249 381.432 787.674 381.631C787.441 381.711 787.206 381.746 786.975 381.741C786.638 381.734 786.311 381.641 786.017 381.476C785.661 381.277 785.356 380.975 785.143 380.592L776.995 378.725L770.175 377.161C770.564 380.033 773.133 382.578 776.995 384.323C779.765 385.572 783.2 386.411 786.975 386.661C787.751 386.712 788.541 386.739 789.343 386.739C789.485 386.739 789.626 386.737 789.767 386.735C793.003 386.698 796.042 386.23 798.694 385.434C804.581 383.666 808.563 380.284 808.563 376.4C808.563 374.515 807.626 372.749 805.99 371.228Z" fill="#ED5A24"/>
<path d="M819.339 365.742L791.085 375.408C790.918 376.215 790.185 376.725 789.442 376.548C788.697 376.371 788.224 375.567 788.387 374.756C788.55 373.943 789.286 373.428 790.032 373.606C790.283 373.665 790.502 373.795 790.677 373.972L817.703 361.296C821.677 359.432 823.253 364.423 819.339 365.742Z" fill="#ED5A24"/>
<path d="M790.815 413.532C792.551 413.461 794.292 413.302 796.036 413.056V390.58C794.322 390.903 792.571 391.097 790.815 391.165V413.532Z" fill="#ED5A24"/>
<path d="M782.652 413.193C784.387 413.41 786.127 413.534 787.872 413.565V391.16C786.112 391.087 784.362 390.887 782.652 390.56V413.193Z" fill="#ED5A24"/>
<path d="M807.142 386.157V410.361C808.277 409.974 809.413 409.553 810.551 409.098V383.355C809.514 384.394 808.369 385.326 807.142 386.157Z" fill="#ED5A24"/>
<path d="M798.979 412.561C800.715 412.221 802.455 411.797 804.199 411.292V387.877C802.549 388.702 800.796 389.371 798.979 389.888V412.561Z" fill="#ED5A24"/>
<path d="M770.244 383.671C767.877 381.157 766.786 378.674 766.625 376.348L763.7 375.678C763.877 379.029 765.493 382.06 768.135 384.51V409.097C769.271 409.602 770.407 410.064 771.545 410.482V387.015C772.463 387.554 773.444 388.049 774.488 388.487V411.464C776.224 411.986 777.964 412.409 779.708 412.735V390.1C780.547 390.278 781.4 390.435 782.276 390.549C779.093 389.711 773.629 387.268 770.244 383.671Z" fill="#ED5A24"/>
<path d="M779.099 363.274C786.089 361.598 794.862 362.721 801.338 364.188C793.229 359.33 779.236 358.189 770.888 363.499C768.178 365.224 766.096 367.412 764.882 369.909L767.923 370.993C770.085 367.208 774.599 364.353 779.099 363.274Z" fill="#ED5A24"/>
<path d="M758.485 373.587L785.699 379.824C785.934 380.61 786.706 381.044 787.431 380.793C788.159 380.541 788.562 379.694 788.33 378.902C788.099 378.109 787.322 377.67 786.594 377.922C786.35 378.007 786.143 378.159 785.982 378.353L759.737 368.996C755.626 367.528 754.476 372.668 758.485 373.587Z" fill="#ED5A24"/>
<path d="M768.135 415.346C775.317 417.89 782.46 419.26 789.544 419.316C796.627 419.37 803.638 418.109 810.552 415.394V411.989C803.638 414.855 796.631 416.182 789.556 416.128C782.494 416.074 775.345 414.64 768.135 411.986V415.346Z" fill="#ED5A24"/>
<path d="M687.291 362.454C685.839 356.405 687.805 349.42 697.315 346.22C691.348 331.485 706.076 312.215 724.237 294.561C701.461 312.651 689.562 327.043 694.955 344.871C683.119 348.077 681.857 360.747 686.519 368.894C694.178 382.274 717.376 377.603 718.729 362.527C715.215 374.34 691.515 380.053 687.291 362.454Z" fill="#F39A1F"/>
<path d="M704.126 326.198C704.126 326.198 711.987 328.136 714.08 333.573C715.432 337.088 713.504 339.506 711.681 341.381C710.446 342.653 708.177 344.495 708.741 346.59C709.545 349.579 712.992 352.199 713.92 356.792C714.383 359.082 714.112 361.321 713.257 363.268C709.909 370.894 697.797 371.783 694.315 370.241C699.569 372.888 708.571 372.163 713.814 366.791C716.872 363.658 718.581 359.276 716.911 354.829C716.21 352.961 715.196 351.325 714.386 350.148C712.022 346.72 709.578 346.411 713.614 342.251C714.977 340.848 716.593 339.494 717.472 337.439C719.31 333.134 716.527 328.836 708.034 325.605C713.527 313.301 720.955 302.733 729.808 292C720.44 300.663 711.583 311.056 704.126 326.198Z" fill="#F39A1F"/>
<path d="M700.55 352.973C700.611 352.973 700.673 352.974 700.735 352.978C702.767 353.087 704.331 354.931 704.229 357.094C704.128 359.191 702.5 360.82 700.55 360.817C700.488 360.817 700.425 360.815 700.363 360.813C698.33 360.703 696.768 358.861 696.87 356.698C696.97 354.599 698.598 352.971 700.55 352.973ZM706.105 329.171C705.952 329.205 705.812 329.306 705.72 329.455C704.689 331.157 703.705 332.874 702.798 334.617C701.983 336.181 701.228 337.77 700.55 339.393C700.472 339.581 700.394 339.769 700.318 339.957C699.579 341.783 698.943 343.649 698.434 345.57C697.922 347.494 697.54 349.474 697.309 351.517V351.526L697.309 351.53C697.034 351.72 696.776 351.93 696.535 352.162L696.534 352.163C695.397 353.257 694.651 354.814 694.566 356.573C694.484 358.333 695.076 359.961 696.104 361.172C697.132 362.383 698.595 363.177 700.247 363.266C700.349 363.273 700.45 363.275 700.55 363.275C702.083 363.276 703.497 362.657 704.565 361.628C705.704 360.533 706.447 358.975 706.53 357.218C706.615 355.458 706.021 353.828 704.993 352.617C704.711 352.285 704.395 351.983 704.052 351.72C704.064 351.692 704.074 351.662 704.08 351.632C704.471 350.068 704.946 348.547 705.502 347.068C706.055 345.591 706.69 344.149 707.399 342.746C708.107 341.341 708.889 339.972 709.737 338.634C710.588 337.294 711.503 335.991 712.475 334.721C712.985 334.052 712.033 333.228 711.524 333.895C710.522 335.202 709.584 336.538 708.718 337.903C707.848 339.272 707.044 340.68 706.316 342.126C705.589 343.569 704.934 345.056 704.36 346.585C703.815 348.036 703.344 349.525 702.954 351.051C702.744 350.954 702.529 350.867 702.309 350.796C702.655 349.224 703.1 347.706 703.634 346.228C704.174 344.728 704.811 343.262 705.534 341.816C706.258 340.366 707.074 338.933 707.972 337.497C708.872 336.064 709.857 334.629 710.92 333.179C711.024 333.036 711.065 332.864 711.047 332.697C711.029 332.545 710.961 332.398 710.846 332.289L710.841 332.282L710.814 332.26L710.813 332.259C710.679 332.149 710.518 332.106 710.364 332.125L710.361 332.126C710.205 332.146 710.056 332.231 709.953 332.371L709.952 332.372C708.873 333.846 707.869 335.307 706.95 336.774C706.026 338.247 705.19 339.72 704.448 341.202L704.449 341.205C703.703 342.697 703.046 344.212 702.487 345.762C701.925 347.32 701.462 348.908 701.102 350.542V350.543C701.019 350.536 700.937 350.528 700.852 350.524C700.75 350.519 700.649 350.517 700.55 350.517H700.508L700.55 350.281C700.792 348.915 701.118 347.556 701.52 346.211C702.007 344.588 702.607 342.975 703.314 341.374C704.021 339.775 704.839 338.183 705.757 336.602C706.678 335.018 707.698 333.447 708.807 331.895C708.909 331.749 708.947 331.574 708.926 331.408C708.904 331.244 708.823 331.088 708.687 330.979L708.685 330.978C708.55 330.868 708.387 330.828 708.233 330.85C708.077 330.873 707.931 330.958 707.828 331.103L707.826 331.105C706.687 332.699 705.645 334.305 704.708 335.917C703.769 337.534 702.932 339.168 702.202 340.819C701.567 342.253 701.014 343.704 700.55 345.166C700.48 345.383 700.414 345.6 700.349 345.818C699.869 347.421 699.495 349.04 699.235 350.67C699.031 350.719 698.83 350.779 698.633 350.849C698.859 349.162 699.194 347.52 699.619 345.918C699.893 344.887 700.205 343.871 700.55 342.868C700.828 342.062 701.127 341.264 701.448 340.473C702.165 338.696 702.984 336.956 703.876 335.245C704.772 333.526 705.74 331.837 706.754 330.164L706.755 330.161C706.844 330.01 706.871 329.832 706.837 329.669C706.804 329.507 706.712 329.357 706.569 329.259C706.427 329.161 706.259 329.134 706.105 329.171Z" fill="#F39A1F"/>
<path d="M828.685 305.744C828.685 306.03 828.575 306.288 828.401 306.475C828.226 306.66 827.987 306.775 827.723 306.775H824.89H822.058C821.794 306.775 821.555 306.66 821.379 306.475C821.206 306.289 821.096 306.03 821.096 305.744V288.097C821.775 288.017 822.307 287.412 822.307 286.683V253.818C822.307 253.421 822.15 253.061 821.896 252.802C821.948 252.793 822.003 252.788 822.058 252.788H824.89H827.358C827.096 253.048 826.933 253.413 826.933 253.818V286.683C826.933 287.466 827.547 288.107 828.3 288.107H828.685V305.744ZM819.941 305.744C819.941 306.03 819.832 306.289 819.657 306.475C819.482 306.66 819.242 306.775 818.979 306.775H816.146H813.313C813.05 306.775 812.81 306.66 812.636 306.475C812.461 306.288 812.352 306.03 812.352 305.744V253.818C812.352 253.533 812.461 253.274 812.636 253.087C812.81 252.904 813.05 252.788 813.313 252.788H816.146H817.897C817.635 253.048 817.471 253.413 817.471 253.818V286.683C817.471 287.466 818.086 288.107 818.838 288.107H819.941V305.744ZM811.197 305.744C811.197 306.03 811.086 306.289 810.912 306.475C810.739 306.66 810.497 306.775 810.234 306.775H807.401H804.568C804.305 306.775 804.065 306.66 803.891 306.475C803.717 306.289 803.607 306.03 803.607 305.744V253.818C803.607 253.533 803.717 253.274 803.891 253.087C804.065 252.904 804.305 252.788 804.568 252.788H807.353C807.091 253.048 806.926 253.413 806.926 253.818V286.683C806.926 287.112 807.111 287.498 807.401 287.759C807.641 287.976 807.953 288.107 808.293 288.107H810.397C810.695 288.107 810.972 288.006 811.197 287.836V305.744ZM802.452 305.744C802.452 306.03 802.343 306.289 802.167 306.475C801.994 306.66 801.753 306.775 801.491 306.775H798.657H795.823C795.562 306.775 795.321 306.66 795.148 306.475C794.971 306.289 794.863 306.03 794.863 305.744V287.941C795.053 288.047 795.27 288.107 795.5 288.107H797.603C798.026 288.107 798.405 287.904 798.657 287.586C798.851 287.34 798.97 287.026 798.97 286.683V253.818C798.97 253.476 798.851 253.161 798.657 252.915C798.622 252.869 798.584 252.827 798.543 252.788H798.657H801.491C801.753 252.788 801.994 252.904 802.167 253.087C802.343 253.274 802.452 253.533 802.452 253.818V305.744ZM793.708 305.744C793.708 306.03 793.598 306.289 793.424 306.475C793.249 306.66 793.009 306.775 792.746 306.775H789.913H787.079C786.817 306.775 786.576 306.66 786.403 306.475C786.228 306.289 786.119 306.03 786.119 305.744V288.107H787.196C787.949 288.107 788.562 287.466 788.562 286.683V253.818C788.562 253.413 788.398 253.048 788.137 252.788H789.913H792.746C793.009 252.788 793.249 252.904 793.423 253.087C793.598 253.274 793.708 253.533 793.708 253.818V305.744ZM784.962 305.744C784.962 306.03 784.855 306.289 784.679 306.475C784.506 306.66 784.265 306.775 784.001 306.775H781.168H778.336C778.073 306.775 777.832 306.66 777.659 306.475C777.484 306.289 777.375 306.03 777.375 305.744V253.818C777.375 253.533 777.484 253.274 777.659 253.087C777.832 252.904 778.073 252.788 778.336 252.788H781.168H784.001C784.049 252.788 784.096 252.791 784.142 252.799C783.885 253.059 783.726 253.419 783.726 253.818V286.683C783.726 287.42 784.273 288.032 784.962 288.1V305.744ZM776.219 305.744C776.219 306.03 776.109 306.289 775.935 306.475C775.761 306.66 775.52 306.775 775.257 306.775H772.424H769.591C769.328 306.775 769.088 306.66 768.915 306.475C768.74 306.289 768.631 306.03 768.631 305.744V288.046C768.756 288.084 768.887 288.107 769.024 288.107H771.128C771.731 288.107 772.244 287.696 772.424 287.13C772.47 286.988 772.494 286.84 772.494 286.683V253.818C772.494 253.663 772.47 253.512 772.424 253.372C772.353 253.148 772.229 252.948 772.068 252.788H772.424H775.257C775.52 252.788 775.761 252.904 775.935 253.087C776.109 253.274 776.219 253.533 776.219 253.818V305.744ZM767.474 305.744C767.474 306.03 767.366 306.289 767.191 306.475C767.017 306.66 766.777 306.775 766.513 306.775H763.68H760.849C760.585 306.775 760.345 306.66 760.17 306.475C759.995 306.289 759.885 306.03 759.885 305.744V288.104L759.98 288.107H762.083C762.835 288.107 763.45 287.466 763.45 286.683V253.818C763.45 253.413 763.286 253.048 763.024 252.788H763.68H766.513C766.777 252.788 767.017 252.904 767.191 253.087C767.366 253.274 767.474 253.533 767.474 253.818V305.744ZM758.73 305.744C758.73 306.03 758.621 306.289 758.445 306.475C758.273 306.66 758.033 306.775 757.769 306.775H754.937H752.104C751.841 306.775 751.599 306.66 751.426 306.475C751.251 306.289 751.142 306.03 751.142 305.744V288.107H753.031C753.782 288.107 754.396 287.466 754.396 286.683V253.818C754.396 253.413 754.232 253.048 753.971 252.788H754.937H757.769C758.033 252.788 758.272 252.904 758.445 253.087C758.539 253.188 758.614 253.308 758.663 253.442C758.63 253.56 758.615 253.688 758.615 253.818V286.683C758.615 286.887 758.655 287.082 758.73 287.257V305.744ZM827.723 252H824.89H822.058C821.657 252 821.285 252.148 820.992 252.394H820.941H820.043C819.751 252.148 819.38 252 818.979 252H816.146H813.313C812.84 252 812.409 252.207 812.098 252.537C811.967 252.676 811.858 252.839 811.775 253.016C811.691 252.839 811.58 252.676 811.45 252.537C811.138 252.207 810.707 252 810.234 252H807.401H804.568C804.096 252 803.666 252.207 803.354 252.537C803.223 252.676 803.113 252.839 803.03 253.016C802.947 252.839 802.836 252.676 802.705 252.537C802.395 252.207 801.963 252 801.491 252H798.657H795.823C795.352 252 794.922 252.206 794.611 252.537C794.48 252.676 794.369 252.837 794.284 253.016C794.202 252.837 794.092 252.676 793.961 252.537C793.65 252.207 793.218 252 792.746 252H789.913H787.079C786.681 252 786.309 252.148 786.018 252.394H785.093H785.067C784.773 252.148 784.402 252 784.001 252H781.168H778.336C777.864 252 777.433 252.206 777.121 252.537C776.991 252.676 776.88 252.839 776.797 253.016C776.713 252.839 776.603 252.676 776.472 252.537C776.161 252.207 775.73 252 775.257 252H772.424H769.591C769.119 252 768.687 252.206 768.377 252.537L768.323 252.598C768.197 252.676 768.085 252.776 767.989 252.893C767.915 252.763 767.828 252.644 767.728 252.537C767.417 252.207 766.988 252 766.513 252H763.68H760.849C760.437 252 760.058 252.155 759.763 252.413C759.525 252.452 759.306 252.557 759.125 252.709C759.082 252.648 759.034 252.591 758.983 252.537C758.672 252.207 758.241 252 757.769 252H754.937H752.104C751.702 252 751.332 252.148 751.04 252.394H750.928C750.174 252.394 749.561 253.035 749.561 253.818V286.683C749.561 287.267 749.902 287.771 750.385 287.99V305.744C750.385 306.242 750.579 306.696 750.889 307.026C751.199 307.356 751.63 307.563 752.104 307.563H754.937H757.769C758.241 307.563 758.673 307.356 758.983 307.026C759.114 306.887 759.225 306.726 759.308 306.547C759.392 306.726 759.502 306.887 759.633 307.026C759.944 307.356 760.375 307.563 760.849 307.563H763.68H766.513C766.988 307.563 767.417 307.356 767.728 307.026C767.859 306.887 767.97 306.726 768.053 306.547C768.137 306.726 768.247 306.887 768.377 307.026C768.687 307.356 769.119 307.563 769.591 307.563H772.424H775.257C775.73 307.563 776.161 307.356 776.472 307.026C776.603 306.887 776.713 306.726 776.797 306.547C776.88 306.726 776.991 306.887 777.121 307.026C777.433 307.356 777.864 307.563 778.336 307.563H781.168H784.001C784.475 307.563 784.906 307.356 785.216 307.026C785.348 306.887 785.458 306.726 785.541 306.547C785.624 306.726 785.736 306.887 785.866 307.026C786.176 307.356 786.607 307.563 787.079 307.563H789.913H792.746C793.218 307.563 793.65 307.356 793.961 307.026C794.092 306.887 794.202 306.726 794.284 306.547C794.369 306.726 794.48 306.887 794.609 307.026C794.922 307.356 795.352 307.563 795.823 307.563H798.657H801.491C801.963 307.563 802.395 307.356 802.705 307.026C802.836 306.887 802.947 306.726 803.03 306.547C803.113 306.726 803.223 306.887 803.354 307.026C803.666 307.356 804.096 307.563 804.568 307.563H807.401H810.234C810.707 307.563 811.138 307.356 811.45 307.026C811.581 306.887 811.691 306.725 811.775 306.547C811.858 306.723 811.967 306.885 812.098 307.024V307.026C812.409 307.356 812.84 307.563 813.313 307.563H816.146H818.979C819.453 307.563 819.883 307.356 820.194 307.026C820.325 306.887 820.434 306.726 820.519 306.547C820.602 306.726 820.711 306.887 820.842 307.026C821.153 307.356 821.585 307.563 822.058 307.563H824.89H827.723C828.197 307.563 828.627 307.356 828.938 307.026L828.939 307.024C829.056 306.9 829.148 306.753 829.228 306.598V252.394H828.787C828.493 252.148 828.124 252 827.723 252Z" fill="#ED5A24"/>
<defs>
<linearGradient id="paint0_linear_303_1184" x1="55" y1="7.95115e-05" x2="829" y2="117" gradientUnits="userSpaceOnUse">
<stop stop-color="#F9D29D" stop-opacity="0.49"/>
<stop offset="1" stop-color="#FEC3F1" stop-opacity="0.6"/>
</linearGradient>
</defs>
</svg>
