<svg width="852" height="234" viewBox="0 0 852 234" fill="none" xmlns="http://www.w3.org/2000/svg">
<path d="M0 234V0H852V234C731.5 234 625.496 167 433 167C265.906 167 108.5 234 0 234Z" fill="url(#paint0_linear_315_128)"/>
<path fill-rule="evenodd" clip-rule="evenodd" d="M149.41 98.1815C148.904 97.6379 148.206 97.3004 147.438 97.3004C146.67 97.3004 145.973 97.6379 145.467 98.1815C144.96 98.7251 144.647 99.4749 144.647 100.299V119.81C144.647 120.634 144.96 121.384 145.467 121.928C145.973 122.471 146.67 122.809 147.438 122.809C148.206 122.809 148.904 122.471 149.41 121.928C149.916 121.384 150.23 120.634 150.23 119.81V100.299C150.23 99.4749 149.916 98.7251 149.41 98.1815Z" fill="#50297B"/>
<path fill-rule="evenodd" clip-rule="evenodd" d="M123.295 97.9995C122.789 97.4558 122.091 97.1183 121.323 97.1183C120.556 97.1183 119.858 97.4558 119.352 97.9995C118.845 98.5431 118.531 99.2934 118.531 100.118V119.628C118.531 120.452 118.845 121.203 119.352 121.746C119.858 122.29 120.556 122.627 121.323 122.627C122.091 122.627 122.789 122.29 123.295 121.746C123.801 121.203 124.115 120.452 124.115 119.628V100.118C124.115 99.2934 123.801 98.5431 123.295 97.9995Z" fill="#50297B"/>
<path fill-rule="evenodd" clip-rule="evenodd" d="M159.336 104.58C160.255 96.9828 158.544 90.536 155.125 84.8373C154.579 83.9256 153.994 83.0652 153.377 82.2552C153.613 81.1274 152.984 79.3693 151.019 77.6516C141.473 70.0365 132.25 68.9082 122.857 74.5342C121.712 75.2206 117.256 77.7441 117.122 80.2681C116.854 80.5459 116.59 80.8283 116.332 81.1212C111.26 86.866 109.117 94.7937 109.434 104.197C109.742 103.596 110.097 103.039 110.491 102.532C111.146 101.691 111.912 100.991 112.758 100.469C112.771 92.7489 115.361 86.8068 119.263 82.7479C120.929 82.8798 122.772 81.0049 124.264 80.1024C131.98 75.4376 139.423 76.0373 146.958 81.7173C147.895 82.3845 148.758 82.8539 149.528 83.1545C153.097 87.1749 155.532 93.0039 155.838 100.734C156.75 101.265 157.572 102.001 158.27 102.896C158.669 103.408 159.026 103.972 159.336 104.58Z" fill="#50297B"/>
<path fill-rule="evenodd" clip-rule="evenodd" d="M157.579 103.517C156.249 101.81 154.418 100.754 152.401 100.754C152.128 100.754 151.868 100.771 151.62 100.805C151.476 100.825 151.332 100.851 151.189 100.881V119.712C151.332 119.743 151.476 119.769 151.62 119.788C151.868 119.823 152.128 119.84 152.401 119.84C154.418 119.84 156.249 118.784 157.579 117.077C158.927 115.346 159.761 112.95 159.761 110.297C159.761 107.645 158.927 105.247 157.579 103.517Z" fill="#50297B"/>
<path fill-rule="evenodd" clip-rule="evenodd" d="M116.36 100.391C114.343 100.391 112.512 101.446 111.182 103.153C109.834 104.884 109 107.281 109 109.934C109 112.586 109.834 114.983 111.182 116.714C112.512 118.421 114.343 119.477 116.36 119.477C116.633 119.477 116.894 119.46 117.141 119.425C117.286 119.405 117.429 119.38 117.572 119.349V100.518C117.429 100.487 117.286 100.462 117.141 100.442C116.894 100.408 116.633 100.391 116.36 100.391Z" fill="#50297B"/>
<path d="M23.2643 152.441C21.8337 153.902 20.9443 155.916 20.9443 158.13V177.014C20.9443 179.227 21.8337 181.241 23.2643 182.702C24.6943 184.164 26.6674 185.071 28.8343 185.071H95.4074C97.5756 185.071 99.5474 184.164 100.978 182.702C102.409 181.241 103.298 179.227 103.298 177.014V158.13C103.298 155.916 102.409 153.902 100.978 152.441C99.5474 150.981 97.5756 150.074 95.4074 150.074H28.8343C26.6674 150.074 24.6943 150.981 23.2643 152.441ZM74.5723 133.015H51.6426V146.044H74.5723V133.015ZM95.4074 146.044C98.6646 146.044 101.623 147.403 103.768 149.593C105.911 151.782 107.242 154.804 107.242 158.13V177.014C107.242 180.339 105.911 183.361 103.768 185.55C101.623 187.74 98.6646 189.099 95.4074 189.099H28.8343C25.5777 189.099 22.619 187.74 20.4741 185.55C18.3311 183.361 17 180.339 17 177.014V158.13C17 154.804 18.3311 151.782 20.4741 149.593C22.619 147.403 25.5777 146.044 28.8343 146.044H49.6701V132.008C49.6701 131.451 50.1118 131 50.6557 131H75.5592C76.1037 131 76.5454 131.451 76.5454 132.008V146.044H95.4074Z" fill="#88288A"/>
<path fill-rule="evenodd" clip-rule="evenodd" d="M86.5433 168.2C86.5433 167.143 87.3829 166.287 88.4176 166.287C89.4516 166.287 90.2906 167.143 90.2906 168.2C90.2906 169.258 89.4516 170.114 88.4176 170.114C87.3829 170.114 86.5433 169.258 86.5433 168.2ZM78.2461 168.2C78.2461 173.937 82.7999 178.587 88.4176 178.587C94.0346 178.587 98.5878 173.937 98.5878 168.2C98.5878 162.465 94.0346 157.815 88.4176 157.815C82.7999 157.815 78.2461 162.465 78.2461 168.2Z" fill="#88288A"/>
<path fill-rule="evenodd" clip-rule="evenodd" d="M33.6313 168.2C33.6313 167.143 34.4697 166.287 35.5043 166.287C36.539 166.287 37.3774 167.143 37.3774 168.2C37.3774 169.258 36.539 170.114 35.5043 170.114C34.4697 170.114 33.6313 169.258 33.6313 168.2ZM25.3335 168.2C25.3335 173.937 29.8873 178.587 35.5043 178.587C41.1214 178.587 45.6745 173.937 45.6745 168.2C45.6745 162.465 41.1214 157.815 35.5043 157.815C29.8873 157.815 25.3335 162.465 25.3335 168.2Z" fill="#88288A"/>
<path d="M67.2923 168.514H56.9497V166.628H67.2923V168.514ZM49.4232 171.223H74.8189V163.921H49.4232V171.223Z" fill="#88288A"/>
<path d="M72.847 157.249H70.8738V155.235H72.847V157.249ZM66.9295 155.235H68.9027V157.249H66.9295V155.235ZM62.9852 155.235H64.957V157.249H62.9852V155.235ZM59.0395 155.235H61.0127V157.249H59.0395V155.235ZM55.0946 155.235H57.0664V157.249H55.0946V155.235ZM51.1489 155.235H53.1221V157.249H51.1489V155.235ZM47.4507 157.249H49.1771V155.235H47.4507V157.249ZM74.8188 155.235H76.7919V157.249H74.8188V155.235Z" fill="#88288A"/>
<path fill-rule="evenodd" clip-rule="evenodd" d="M35.5734 57.3012C33.5647 57.1848 31.5117 58.0223 30.0079 59.4028L36.3219 33.8585C37.4301 34.0283 53.7335 36.5142 55.5809 36.718C56.6123 36.8316 56.847 37.3444 56.8441 37.7927L56.6662 38.5116L49.7621 66.437H49.801C49.4559 69.1673 51.3165 71.3792 54.2924 71.5524C57.5872 71.7445 61.0011 69.3672 61.9183 66.2427C62.8349 63.1187 60.9078 60.4308 57.614 60.2386C55.5843 60.1206 53.509 60.9776 52.0008 62.3837L58.3459 36.7169C58.3459 36.7169 58.9924 33.8346 59.2971 32.4101C59.6009 30.9851 58.0427 30.7111 58.0427 30.7111C58.0427 30.7111 39.6838 28.3545 37.8383 28.08C35.9929 27.806 35.9555 29.5055 35.9555 29.5055L35.0524 33.8501L27.7051 63.5703H27.7532C27.4475 66.2678 29.3017 68.444 32.2529 68.6155C35.5472 68.807 38.9616 66.4304 39.8782 63.3058C40.7949 60.1813 38.8673 57.4939 35.5734 57.3012Z" fill="#88288A"/>
<path fill-rule="evenodd" clip-rule="evenodd" d="M79.9787 57.485C82.3243 57.2205 84.4706 58.0953 85.7363 59.6205V26.107C85.7363 25.754 85.9885 25.4644 86.2971 25.4644H86.3662C86.6738 25.4644 86.9266 25.754 86.9266 26.107V62.3219C86.9266 62.387 86.9178 62.4499 86.9018 62.509C87.1156 65.6029 84.4726 68.4145 80.9537 68.811C77.4028 69.2119 74.3058 67.0006 74.0365 63.8727C73.7678 60.7454 76.4273 57.8854 79.9787 57.485Z" fill="#88288A"/>
<path fill-rule="evenodd" clip-rule="evenodd" d="M70.4422 17.4122C70.9312 18.9553 72.5239 21.6532 73.7638 23.3951C74.6381 24.6224 75.6403 25.4761 76.5103 26.6839C77.7157 28.3562 78.5171 30.2217 78.9502 32.2625C79.1159 33.0438 79.2258 33.8457 79.2856 34.647C79.3628 35.6845 79.3546 36.7364 79.2369 37.7666C78.9288 40.4707 77.9397 42.4587 76.659 44.1387C76.3315 44.4739 75.9159 44.1014 76.3392 43.4048C77.6034 41.2881 78.1434 38.7973 77.845 35.8738C77.7857 35.2896 77.7011 34.7712 77.5592 34.206C77.2714 33.0616 76.8447 32.0225 76.2794 31.0904C75.7536 30.2256 75.4119 29.9488 74.7446 29.2867C73.1008 27.654 71.6685 25.6871 70.4422 23.4012V50.3059C70.4422 50.4101 70.4237 50.5097 70.3912 50.6005C70.4291 50.8411 70.448 51.0866 70.448 51.3367C70.448 54.3994 67.5581 56.8824 63.9931 56.8824C60.429 56.8824 57.5386 54.3994 57.5386 51.3367C57.5386 48.2734 60.429 45.7898 63.9931 45.7898C66.0558 45.7898 67.893 46.6217 69.074 47.9153V16.783C69.074 16.3525 69.3817 16 69.7579 16C70.1336 16 70.4422 16.3525 70.4422 16.783V17.4122Z" fill="#88288A"/>
<path d="M810.99 134.228L803.694 136.725L796.705 139.116C796.525 139.523 796.246 139.855 795.91 140.088L795.909 140.086C795.573 140.318 795.178 140.453 794.768 140.46C794.604 140.462 794.438 140.445 794.273 140.404C793.682 140.265 793.2 139.876 792.897 139.364C792.595 138.849 792.471 138.211 792.6 137.57C792.729 136.927 793.086 136.4 793.556 136.071C793.911 135.824 794.33 135.686 794.768 135.693C794.911 135.695 795.057 135.713 795.202 135.747C795.391 135.793 795.574 135.867 795.748 135.965L795.749 135.963L795.769 135.974L803.694 132.256L805.995 131.177C805.268 130.878 804.499 130.607 803.694 130.365C801.043 129.569 798.003 129.101 794.768 129.063C794.626 129.061 794.485 129.061 794.343 129.061C793.542 129.061 792.751 129.087 791.975 129.138C788.201 129.388 784.765 130.226 781.996 131.476C779.704 132.511 777.867 133.828 776.672 135.329L781.996 137.227L790.809 140.369L790.828 140.355C790.989 140.242 791.165 140.149 791.352 140.086C791.558 140.014 791.768 139.978 791.975 139.975C792.341 139.967 792.699 140.063 793.017 140.242C793.513 140.521 793.913 141.01 794.096 141.639H794.099C794.28 142.263 794.212 142.911 793.955 143.452C793.697 143.994 793.249 144.432 792.674 144.631C792.442 144.711 792.206 144.746 791.975 144.741C791.639 144.734 791.311 144.641 791.017 144.476C790.661 144.277 790.356 143.975 790.143 143.592L781.996 141.725L775.175 140.161C775.564 143.033 778.134 145.578 781.996 147.323C784.765 148.572 788.2 149.411 791.975 149.661C792.751 149.712 793.542 149.739 794.343 149.739C794.485 149.739 794.626 149.737 794.768 149.735C798.003 149.698 801.042 149.23 803.694 148.434C809.582 146.666 813.563 143.284 813.563 139.4C813.563 137.515 812.626 135.749 810.99 134.228Z" fill="#ED5A24"/>
<path d="M824.339 128.742L796.085 138.408C795.918 139.215 795.185 139.725 794.442 139.548C793.697 139.371 793.224 138.567 793.387 137.756C793.55 136.943 794.286 136.428 795.032 136.606C795.283 136.665 795.502 136.795 795.677 136.972L822.703 124.296C826.677 122.432 828.253 127.423 824.339 128.742Z" fill="#ED5A24"/>
<path d="M795.815 176.532C797.551 176.461 799.291 176.302 801.036 176.056V153.58C799.322 153.903 797.571 154.097 795.815 154.165V176.532Z" fill="#ED5A24"/>
<path d="M787.652 176.193C789.387 176.41 791.127 176.534 792.872 176.565V154.16C791.112 154.087 789.362 153.887 787.652 153.56V176.193Z" fill="#ED5A24"/>
<path d="M812.142 149.157V173.361C813.277 172.974 814.413 172.553 815.551 172.098V146.355C814.514 147.394 813.369 148.326 812.142 149.157Z" fill="#ED5A24"/>
<path d="M803.979 175.561C805.715 175.221 807.454 174.797 809.199 174.292V150.877C807.549 151.702 805.796 152.371 803.979 152.888V175.561Z" fill="#ED5A24"/>
<path d="M775.244 146.671C772.877 144.157 771.786 141.674 771.625 139.348L768.7 138.678C768.877 142.03 770.493 145.06 773.135 147.51V172.097C774.271 172.603 775.407 173.064 776.545 173.482V150.015C777.463 150.554 778.444 151.049 779.489 151.487V174.464C781.224 174.986 782.964 175.409 784.708 175.735V153.1C785.547 153.278 786.4 153.435 787.276 153.549C784.093 152.711 778.63 150.268 775.244 146.671Z" fill="#ED5A24"/>
<path d="M784.099 126.274C791.089 124.598 799.862 125.721 806.338 127.188C798.229 122.33 784.236 121.189 775.888 126.5C773.178 128.224 771.096 130.412 769.882 132.909L772.923 133.993C775.085 130.208 779.599 127.353 784.099 126.274Z" fill="#ED5A24"/>
<path d="M763.485 136.587L790.699 142.824C790.934 143.61 791.706 144.044 792.431 143.793C793.159 143.541 793.562 142.694 793.33 141.902C793.099 141.109 792.322 140.67 791.594 140.922C791.35 141.007 791.143 141.159 790.982 141.353L764.737 131.996C760.626 130.528 759.476 135.668 763.485 136.587Z" fill="#ED5A24"/>
<path d="M773.135 178.346C780.317 180.89 787.46 182.26 794.544 182.316C801.627 182.37 808.638 181.109 815.551 178.394V174.989C808.638 177.855 801.631 179.182 794.556 179.128C787.493 179.074 780.345 177.64 773.135 174.986V178.346Z" fill="#ED5A24"/>
<path d="M692.291 125.454C690.839 119.405 692.805 112.42 702.315 109.22C696.348 94.4847 711.076 75.2148 729.237 57.5608C706.461 75.6513 694.562 90.0427 699.955 107.871C688.119 111.077 686.857 123.747 691.519 131.894C699.178 145.274 722.376 140.603 723.729 125.527C720.215 137.34 696.515 143.053 692.291 125.454Z" fill="#F39A1F"/>
<path d="M709.126 89.1978C709.126 89.1978 716.987 91.136 719.081 96.5732C720.432 100.088 718.504 102.506 716.682 104.381C715.446 105.653 713.177 107.495 713.741 109.59C714.545 112.579 717.992 115.199 718.92 119.792C719.383 122.082 719.112 124.321 718.257 126.268C714.91 133.894 702.797 134.783 699.316 133.241C704.569 135.888 713.571 135.163 718.814 129.791C721.872 126.658 723.581 122.276 721.911 117.829C721.21 115.961 720.196 114.325 719.386 113.148C717.022 109.72 714.578 109.411 718.614 105.251C719.977 103.847 721.593 102.494 722.472 100.439C724.31 96.1337 721.527 91.8358 713.034 88.6052C718.527 76.3012 725.955 65.7332 734.808 55C725.44 63.6628 716.583 74.0556 709.126 89.1978Z" fill="#F39A1F"/>
<path d="M705.55 115.972C705.611 115.972 705.673 115.973 705.735 115.977C707.767 116.087 709.33 117.931 709.229 120.094C709.128 122.191 707.5 123.82 705.55 123.817C705.488 123.817 705.425 123.815 705.363 123.813C703.33 123.703 701.768 121.861 701.869 119.698C701.97 117.599 703.598 115.971 705.55 115.972ZM711.105 92.1714C710.952 92.2054 710.812 92.3055 710.72 92.4547C709.689 94.1567 708.705 95.8736 707.798 97.6166C706.983 99.1814 706.227 100.77 705.55 102.393C705.472 102.581 705.394 102.769 705.317 102.957C704.579 104.783 703.943 106.649 703.434 108.57C702.922 110.494 702.54 112.473 702.309 114.517V114.526L702.308 114.53C702.034 114.72 701.775 114.93 701.535 115.162L701.534 115.163C700.396 116.257 699.651 117.814 699.566 119.573C699.484 121.333 700.076 122.961 701.104 124.172C702.132 125.383 703.594 126.177 705.247 126.266C705.348 126.273 705.45 126.275 705.55 126.275C707.083 126.276 708.497 125.656 709.564 124.628C710.704 123.533 711.447 121.975 711.53 120.218C711.615 118.458 711.021 116.828 709.993 115.617C709.711 115.285 709.395 114.983 709.052 114.72C709.063 114.692 709.074 114.662 709.08 114.632C709.47 113.068 709.946 111.547 710.502 110.068C711.054 108.591 711.69 107.149 712.399 105.746C713.106 104.341 713.889 102.972 714.736 101.634C715.588 100.294 716.503 98.9911 717.475 97.7207C717.985 97.0519 717.033 96.228 716.523 96.8948C715.521 98.2022 714.584 99.5378 713.718 100.903C712.848 102.272 712.044 103.679 711.316 105.126C710.589 106.569 709.934 108.055 709.36 109.585C708.815 111.036 708.344 112.525 707.954 114.051C707.744 113.954 707.529 113.867 707.308 113.796C707.655 112.224 708.1 110.705 708.634 109.228C709.174 107.728 709.811 106.262 710.534 104.816C711.257 103.366 712.073 101.932 712.972 100.497C713.872 99.0642 714.857 97.6286 715.92 96.1789C716.024 96.0358 716.065 95.8636 716.047 95.6974C716.029 95.5452 715.961 95.3981 715.846 95.2889L715.841 95.2819L715.814 95.2599L715.813 95.2589C715.679 95.1488 715.518 95.1057 715.363 95.1248L715.361 95.1258C715.205 95.1458 715.056 95.2309 714.953 95.371L714.952 95.372C713.873 96.8457 712.869 98.3074 711.95 99.774C711.026 101.247 710.19 102.72 709.448 104.202L709.449 104.205C708.702 105.697 708.046 107.211 707.487 108.762C706.925 110.32 706.461 111.908 706.101 113.542V113.543C706.019 113.536 705.937 113.528 705.852 113.524C705.75 113.519 705.649 113.517 705.55 113.517H705.508L705.55 113.281C705.792 111.915 706.117 110.556 706.52 109.211C707.007 107.588 707.606 105.975 708.314 104.374C709.021 102.774 709.839 101.183 710.757 99.6018C711.678 98.018 712.698 96.4473 713.807 94.8945C713.909 94.7493 713.947 94.5741 713.926 94.4079C713.904 94.2437 713.823 94.0876 713.686 93.9784L713.685 93.9774C713.55 93.8683 713.387 93.8283 713.232 93.8503C713.077 93.8733 712.931 93.9584 712.828 94.1026L712.825 94.1046C711.687 95.6994 710.645 97.3052 709.708 98.9171C708.769 100.534 707.932 102.168 707.202 103.819C706.567 105.253 706.014 106.704 705.55 108.166C705.48 108.383 705.414 108.6 705.348 108.818C704.869 110.421 704.495 112.04 704.235 113.67C704.031 113.719 703.829 113.779 703.633 113.849C703.859 112.162 704.194 110.52 704.619 108.918C704.893 107.887 705.205 106.871 705.55 105.868C705.828 105.062 706.127 104.264 706.448 103.473C707.165 101.696 707.984 99.9562 708.876 98.2453C709.772 96.5263 710.74 94.8374 711.754 93.1635L711.755 93.1605C711.844 93.0104 711.871 92.8321 711.837 92.669C711.804 92.5068 711.711 92.3566 711.569 92.2585C711.427 92.1614 711.258 92.1344 711.105 92.1714Z" fill="#F39A1F"/>
<path d="M833.685 68.7442C833.685 69.0297 833.575 69.2882 833.401 69.4745C833.226 69.6596 832.987 69.7751 832.723 69.7751H829.89H827.058C826.794 69.7751 826.555 69.6596 826.379 69.4745C826.206 69.2888 826.096 69.0297 826.096 68.7442V51.0974C826.775 51.0174 827.307 50.4124 827.307 49.6827V16.8182C827.307 16.4212 827.15 16.061 826.896 15.8025C826.948 15.7926 827.003 15.788 827.058 15.788H829.89H832.358C832.096 16.0479 831.933 16.4133 831.933 16.8182V49.6827C831.933 50.4662 832.547 51.1073 833.3 51.1073H833.685V68.7442ZM824.941 68.7442C824.941 69.0297 824.832 69.2888 824.657 69.4745C824.482 69.6596 824.242 69.7751 823.979 69.7751H821.146H818.313C818.05 69.7751 817.81 69.6596 817.636 69.4745C817.461 69.2882 817.352 69.0297 817.352 68.7442V16.8182C817.352 16.5328 817.461 16.2742 817.636 16.0872C817.81 15.9035 818.05 15.788 818.313 15.788H821.146H822.897C822.635 16.0479 822.471 16.4133 822.471 16.8182V49.6827C822.471 50.4662 823.086 51.1073 823.838 51.1073H824.941V68.7442ZM816.197 68.7442C816.197 69.0297 816.086 69.2888 815.912 69.4745C815.739 69.6596 815.497 69.7751 815.234 69.7751H812.401H809.568C809.305 69.7751 809.065 69.6596 808.891 69.4745C808.717 69.2888 808.607 69.0297 808.607 68.7442V16.8182C808.607 16.5328 808.717 16.2742 808.891 16.0872C809.065 15.9035 809.305 15.788 809.568 15.788H812.353C812.091 16.0479 811.926 16.4133 811.926 16.8182V49.6827C811.926 50.1119 812.111 50.4983 812.401 50.7595C812.641 50.976 812.953 51.1073 813.293 51.1073H815.397C815.695 51.1073 815.972 51.0062 816.197 50.8356V68.7442ZM807.452 68.7442C807.452 69.0297 807.343 69.2888 807.167 69.4745C806.994 69.6596 806.753 69.7751 806.491 69.7751H803.657H800.823C800.562 69.7751 800.321 69.6596 800.148 69.4745C799.971 69.2888 799.863 69.0297 799.863 68.7442V50.9412C800.053 51.0469 800.27 51.1073 800.5 51.1073H802.603C803.026 51.1073 803.405 50.9038 803.657 50.5863C803.851 50.3402 803.97 50.0259 803.97 49.6827V16.8182C803.97 16.4757 803.851 16.1607 803.657 15.9147C803.622 15.8694 803.584 15.8274 803.543 15.788H803.657H806.491C806.753 15.788 806.994 15.9035 807.167 16.0872C807.343 16.2742 807.452 16.5328 807.452 16.8182V68.7442ZM798.708 68.7442C798.708 69.0297 798.598 69.2888 798.424 69.4745C798.249 69.6596 798.009 69.7751 797.746 69.7751H794.913H792.079C791.817 69.7751 791.576 69.6596 791.403 69.4745C791.228 69.2888 791.119 69.0297 791.119 68.7442V51.1073H792.196C792.949 51.1073 793.562 50.4662 793.562 49.6827V16.8182C793.562 16.4133 793.398 16.0479 793.137 15.788H794.913H797.746C798.009 15.788 798.249 15.9035 798.423 16.0872C798.598 16.2742 798.708 16.5328 798.708 16.8182V68.7442ZM789.962 68.7442C789.962 69.0297 789.855 69.2888 789.679 69.4745C789.506 69.6596 789.265 69.7751 789.001 69.7751H786.168H783.336C783.073 69.7751 782.832 69.6596 782.659 69.4745C782.484 69.2888 782.375 69.0297 782.375 68.7442V16.8182C782.375 16.5328 782.484 16.2742 782.659 16.0872C782.832 15.9035 783.073 15.788 783.336 15.788H786.168H789.001C789.049 15.788 789.096 15.7913 789.142 15.7985C788.885 16.059 788.726 16.4192 788.726 16.8182V49.6827C788.726 50.4203 789.273 51.0318 789.962 51.1V68.7442ZM781.219 68.7442C781.219 69.0297 781.109 69.2888 780.935 69.4745C780.761 69.6596 780.52 69.7751 780.257 69.7751H777.424H774.591C774.328 69.7751 774.088 69.6596 773.915 69.4745C773.74 69.2888 773.631 69.0297 773.631 68.7442V51.0462C773.756 51.0843 773.887 51.1073 774.024 51.1073H776.128C776.731 51.1073 777.244 50.6958 777.424 50.1296C777.47 49.9885 777.494 49.8395 777.494 49.6827V16.8182C777.494 16.6627 777.47 16.5118 777.424 16.372C777.353 16.1476 777.229 15.9481 777.068 15.788H777.424H780.257C780.52 15.788 780.761 15.9035 780.935 16.0872C781.109 16.2742 781.219 16.5328 781.219 16.8182V68.7442ZM772.474 68.7442C772.474 69.0297 772.366 69.2888 772.191 69.4745C772.017 69.6596 771.777 69.7751 771.513 69.7751H768.68H765.849C765.585 69.7751 765.345 69.6596 765.17 69.4745C764.995 69.2888 764.885 69.0297 764.885 68.7442V51.104L764.98 51.1073H767.083C767.835 51.1073 768.45 50.4662 768.45 49.6827V16.8182C768.45 16.4133 768.286 16.0479 768.024 15.788H768.68H771.513C771.777 15.788 772.017 15.9035 772.191 16.0872C772.366 16.2742 772.474 16.5328 772.474 16.8182V68.7442ZM763.73 68.7442C763.73 69.0297 763.621 69.2888 763.445 69.4745C763.273 69.6596 763.033 69.7751 762.769 69.7751H759.937H757.104C756.841 69.7751 756.599 69.6596 756.426 69.4745C756.251 69.2888 756.142 69.0297 756.142 68.7442V51.1073H758.031C758.782 51.1073 759.396 50.4662 759.396 49.6827V16.8182C759.396 16.4133 759.232 16.0479 758.971 15.788H759.937H762.769C763.033 15.788 763.272 15.9035 763.445 16.0872C763.539 16.1876 763.614 16.3077 763.663 16.4416C763.63 16.5603 763.615 16.6883 763.615 16.8182V49.6827C763.615 49.8874 763.655 50.0817 763.73 50.2569V68.7442ZM832.723 15H829.89H827.058C826.657 15 826.285 15.1483 825.992 15.3943H825.941H825.043C824.751 15.1483 824.38 15 823.979 15H821.146H818.313C817.84 15 817.409 15.2073 817.098 15.5367C816.967 15.6765 816.858 15.8385 816.775 16.0157C816.691 15.8385 816.58 15.6765 816.45 15.5367C816.138 15.2073 815.707 15 815.234 15H812.401H809.568C809.096 15 808.666 15.2073 808.354 15.5367C808.223 15.6765 808.113 15.8385 808.03 16.0157C807.947 15.8385 807.836 15.6765 807.705 15.5367C807.395 15.2073 806.963 15 806.491 15H803.657H800.823C800.352 15 799.922 15.206 799.611 15.5367C799.48 15.6765 799.369 15.8372 799.284 16.0157C799.202 15.8372 799.092 15.6765 798.961 15.5367C798.65 15.2073 798.218 15 797.746 15H794.913H792.079C791.681 15 791.309 15.1483 791.018 15.3943H790.093H790.067C789.773 15.1483 789.402 15 789.001 15H786.168H783.336C782.864 15 782.433 15.206 782.121 15.5367C781.991 15.6765 781.88 15.8385 781.797 16.0157C781.713 15.8385 781.603 15.6765 781.472 15.5367C781.161 15.2073 780.73 15 780.257 15H777.424H774.591C774.119 15 773.687 15.206 773.377 15.5367L773.323 15.5977C773.197 15.6765 773.085 15.7762 772.989 15.893C772.915 15.7631 772.828 15.6437 772.728 15.5367C772.417 15.2073 771.988 15 771.513 15H768.68H765.849C765.437 15 765.058 15.1555 764.763 15.4127C764.525 15.4521 764.306 15.557 764.125 15.7086C764.082 15.6483 764.034 15.5905 763.983 15.5367C763.672 15.2073 763.241 15 762.769 15H759.937H757.104C756.702 15 756.332 15.1483 756.04 15.3943H755.928C755.174 15.3943 754.561 16.0347 754.561 16.8182V49.6827C754.561 50.2667 754.902 50.7706 755.385 50.9905V68.7442C755.385 69.2423 755.579 69.6957 755.889 70.0257C756.199 70.3564 756.63 70.5631 757.104 70.5631H759.937H762.769C763.241 70.5631 763.673 70.3564 763.983 70.0257C764.114 69.8873 764.225 69.7258 764.308 69.5467C764.392 69.7258 764.502 69.8873 764.633 70.0257C764.944 70.3564 765.375 70.5631 765.849 70.5631H768.68H771.513C771.988 70.5631 772.417 70.3564 772.728 70.0257C772.859 69.8873 772.97 69.7258 773.053 69.5467C773.137 69.7258 773.247 69.8873 773.377 70.0257C773.687 70.3564 774.119 70.5631 774.591 70.5631H777.424H780.257C780.73 70.5631 781.161 70.3564 781.472 70.0257C781.603 69.8873 781.713 69.7258 781.797 69.5467C781.88 69.7258 781.991 69.8873 782.121 70.0257C782.433 70.3564 782.864 70.5631 783.336 70.5631H786.168H789.001C789.475 70.5631 789.906 70.3564 790.216 70.0257C790.348 69.8873 790.458 69.7258 790.541 69.5467C790.624 69.7258 790.736 69.8873 790.866 70.0257C791.176 70.3564 791.607 70.5631 792.079 70.5631H794.913H797.746C798.218 70.5631 798.65 70.3564 798.961 70.0257C799.092 69.8873 799.202 69.7258 799.284 69.5474C799.369 69.7258 799.48 69.8873 799.609 70.0257C799.922 70.3564 800.352 70.5631 800.823 70.5631H803.657H806.491C806.963 70.5631 807.395 70.3564 807.705 70.0257C807.836 69.8873 807.947 69.7258 808.03 69.5467C808.113 69.7258 808.223 69.8873 808.354 70.0257C808.666 70.3564 809.096 70.5631 809.568 70.5631H812.401H815.234C815.707 70.5631 816.138 70.3564 816.45 70.0257C816.581 69.8873 816.691 69.7245 816.775 69.5467C816.858 69.7232 816.967 69.8846 817.098 70.0237V70.0257C817.409 70.3564 817.84 70.5631 818.313 70.5631H821.146H823.979C824.453 70.5631 824.883 70.3564 825.194 70.0257C825.325 69.8873 825.434 69.7258 825.519 69.5474C825.602 69.7258 825.711 69.8873 825.842 70.0257C826.153 70.3564 826.585 70.5631 827.058 70.5631H829.89H832.723C833.197 70.5631 833.627 70.3564 833.938 70.0257L833.939 70.0237C834.056 69.8997 834.148 69.7534 834.228 69.5979V15.3943H833.787C833.493 15.1483 833.124 15 832.723 15Z" fill="#ED5A24"/>
<defs>
<linearGradient id="paint0_linear_315_128" x1="55" y1="7.95115e-05" x2="829" y2="117" gradientUnits="userSpaceOnUse">
<stop stop-color="#FFEBB7"/>
<stop offset="1" stop-color="#F6FFC0"/>
</linearGradient>
</defs>
</svg>
